<svg xmlns="http://www.w3.org/2000/svg" viewBox="0 0 240 200" width="150" height="125" role="img" aria-label="ラーメンのイラスト">
  <rect x="0" y="0" width="240" height="200" rx="16" fill="#fee2e2"/>
  <path d="M78 46 C72 36, 84 30, 78 20" fill="none" stroke="#fca5a5" stroke-width="4" stroke-linecap="round"/>
  <line x1="176" y1="18" x2="146" y2="88" stroke="#92400e" stroke-width="5" stroke-linecap="round"/>
  <line x1="188" y1="24" x2="158" y2="92" stroke="#b45309" stroke-width="5" stroke-linecap="round"/>
  <ellipse cx="120" cy="104" rx="82" ry="20" fill="#fde68a" stroke="#f59e0b" stroke-width="3"/>
  <path d="M66 100 C70 108, 76 108, 80 100 M92 102 C96 110, 102 110, 106 102 M118 104 C122 112, 128 112, 132 104" fill="none" stroke="#f59e0b" stroke-width="2.5"/>
  <circle cx="96" cy="98" r="14" fill="#ffffff" stroke="#f472b6" stroke-width="3"/>
  <path d="M96 91 C102 91, 103 99, 96 99 C92 99, 92 94, 96 94" fill="none" stroke="#f472b6" stroke-width="2.5"/>
  <ellipse cx="152" cy="98" rx="15" ry="11" fill="#ffffff" stroke="#f59e0b" stroke-width="2.5"/>
  <circle cx="152" cy="98" r="5" fill="#fbbf24"/>
  <rect x="120" y="90" width="9" height="9" rx="2" fill="#4ade80"/>
  <path d="M38 108 C40 158, 76 178, 120 178 C164 178, 200 158, 202 108 C176 120, 64 120, 38 108 Z" fill="#ef4444" stroke="#b91c1c" stroke-width="3"/>
  <rect x="94" y="177" width="52" height="9" rx="4" fill="#b91c1c"/>
</svg>
