<svg viewBox="0 0 1000 500" xmlns="http://www.w3.org/2000/svg" font-family="Hiragino Kaku Gothic ProN, Meiryo, sans-serif">
  <!-- Unity Hubウィンドウ（画面イメージ図） -->
  <rect x="0" y="0" width="1000" height="500" rx="8" fill="#141517"/>
  <rect x="0" y="0" width="1000" height="32" rx="8" fill="#0c0c0d"/>
  <rect x="0" y="16" width="1000" height="16" fill="#0c0c0d"/>
  <text x="16" y="21" font-size="12" fill="#8b8b8e">Unity Hub</text>
  <g font-size="14" fill="#9a9a9a">
    <text x="906" y="22">—</text>
    <text x="936" y="22">□</text>
    <text x="966" y="22">✕</text>
  </g>
  <!-- サイドバー -->
  <rect x="0" y="32" width="230" height="468" fill="#1e1f22"/>
  <circle cx="36" cy="64" r="10" fill="none" stroke="#d6d6d6" stroke-width="2"/>
  <circle cx="36" cy="64" r="3.5" fill="#d6d6d6"/>
  <text x="56" y="71" font-size="19" font-weight="bold" fill="#ffffff">Hub</text>
  <rect x="12" y="104" width="206" height="36" rx="6" fill="#34363a"/>
  <g fill="none" stroke="#e2e2e5" stroke-width="2">
    <path d="M26 117 h6 l3 3 h9 v10 h-18 z"/>
  </g>
  <text x="54" y="127" font-size="14" fill="#ffffff">Projects</text>
  <g fill="#aeafb3">
    <rect x="26" y="158" width="18" height="5" rx="1.5"/>
    <rect x="26" y="166" width="18" height="5" rx="1.5"/>
  </g>
  <text x="54" y="170" font-size="14" fill="#b9babd">Installs</text>
  <circle cx="35" cy="205" r="8" fill="none" stroke="#aeafb3" stroke-width="2"/>
  <text x="54" y="211" font-size="14" fill="#b9babd">Learn</text>
  <g fill="none" stroke="#aeafb3" stroke-width="2">
    <circle cx="31" cy="246" r="6"/>
    <circle cx="41" cy="246" r="6"/>
  </g>
  <text x="54" y="251" font-size="14" fill="#b9babd">Community</text>
  <!-- メイン領域 -->
  <rect x="230" y="32" width="770" height="468" fill="#101113"/>
  <text x="262" y="92" font-size="26" font-weight="bold" fill="#ffffff">Projects</text>
  <rect x="470" y="66" width="220" height="34" rx="17" fill="#1c1d1f" stroke="#333438"/>
  <g fill="none" stroke="#77787b" stroke-width="2">
    <circle cx="492" cy="82" r="5"/>
    <line x1="496" y1="86" x2="501" y2="91"/>
  </g>
  <text x="508" y="88" font-size="13" fill="#77787b">Search</text>
  <rect x="710" y="66" width="100" height="34" rx="6" fill="#26272a" stroke="#6a6b6e"/>
  <text x="760" y="88" font-size="14" fill="#e8e8ea" text-anchor="middle">Open ∨</text>
  <rect x="822" y="66" width="150" height="34" rx="6" fill="#2563eb"/>
  <text x="897" y="88" font-size="14" font-weight="bold" fill="#ffffff" text-anchor="middle">New project</text>
  <!-- 一覧の見出し -->
  <g font-size="12" fill="#8a8b8e">
    <text x="270" y="142">NAME</text>
    <text x="640" y="142">MODIFIED</text>
    <text x="790" y="142">EDITOR VERSION</text>
  </g>
  <!-- プロジェクト行 -->
  <rect x="250" y="156" width="730" height="64" rx="8" fill="#1d1e21" stroke="#2c2d30"/>
  <text x="270" y="186" font-size="16" font-weight="bold" fill="#ffffff">2d-action-game</text>
  <text x="270" y="208" font-size="12" fill="#85868a">デスクトップ/yumeaka-unity/2d-action-game</text>
  <text x="640" y="192" font-size="13" fill="#b0b1b4">たった今</text>
  <text x="790" y="192" font-size="14" fill="#e6e6e9">2022.3.62f3</text>
  <!-- 注釈（最後に描く） -->
  <rect x="782" y="166" width="130" height="42" rx="6" fill="none" stroke="#ff3b30" stroke-width="3"/>
  <circle cx="938" cy="187" r="13" fill="#ff3b30"/>
  <text x="938" y="192" font-size="14" fill="#ffffff" text-anchor="middle" font-weight="bold">1</text>
  <rect x="262" y="164" width="190" height="32" rx="6" fill="none" stroke="#ff3b30" stroke-width="3"/>
  <circle cx="240" cy="188" r="13" fill="#ff3b30"/>
  <text x="240" y="193" font-size="14" fill="#ffffff" text-anchor="middle" font-weight="bold">2</text>
  <rect x="250" y="256" width="730" height="120" rx="10" fill="#fff1f0" stroke="#ff3b30" stroke-width="2"/>
  <text x="270" y="290" font-size="15" fill="#c0392b" font-weight="bold">① Editor Version が「2022.3」で始まっていることを確認</text>
  <text x="290" y="316" font-size="13" fill="#c0392b">（あとの細かい数字は、ちがっていても大丈夫）</text>
  <text x="270" y="348" font-size="15" fill="#c0392b" font-weight="bold">② プロジェクト名をクリックして開く。初回は起動に数分かかるよ</text>
</svg>
