<svg viewBox="0 0 1000 510" width="1000" height="510" xmlns="http://www.w3.org/2000/svg" font-family="Hiragino Kaku Gothic ProN, Meiryo, sans-serif">
  <rect width="1000" height="510" rx="14" fill="#f8fafc"/>
  <text x="500" y="48" text-anchor="middle" font-size="24" font-weight="bold" fill="#172554">USBからゲームのデータをコピーしよう</text>
  <rect x="35" y="85" width="400" height="315" rx="10" fill="#ffffff" stroke="#94a3b8" stroke-width="2"/>
  <rect x="35" y="85" width="400" height="42" rx="10" fill="#e2e8f0"/><text x="57" y="112" font-size="15" fill="#334155">ファイルを開く</text>
  <rect x="54" y="148" width="136" height="225" rx="6" fill="#f1f5f9"/><text x="72" y="181" font-size="14" fill="#475569">PC</text><rect x="64" y="197" width="116" height="37" rx="5" fill="#dbeafe"/><text x="78" y="221" font-size="14" font-weight="bold" fill="#1d4ed8">🔌 USBドライブ</text><text x="72" y="270" font-size="14" fill="#475569">デスクトップ</text>
  <rect x="210" y="148" width="205" height="225" rx="6" fill="#fff" stroke="#cbd5e1"/><text x="228" y="181" font-size="14" fill="#64748b">USBドライブ</text><rect x="225" y="200" width="174" height="52" rx="6" fill="#fef3c7" stroke="#f59e0b" stroke-width="2"/><text x="312" y="223" text-anchor="middle" font-size="14" font-weight="bold" fill="#92400e">📁 03_Platformer</text><text x="312" y="244" text-anchor="middle" font-size="14" font-weight="bold" fill="#92400e">_Microgame</text><rect x="230" y="278" width="164" height="54" rx="6" fill="#eff6ff" stroke="#60a5fa" stroke-width="2"/><text x="312" y="302" text-anchor="middle" font-size="13" font-weight="bold" fill="#1e40af">📦 2d-action-game</text><text x="312" y="321" text-anchor="middle" font-size="13" fill="#1e40af">.zip</text>
  <defs><marker id="arrow" markerWidth="12" markerHeight="12" refX="10" refY="6" orient="auto"><path d="M0,0 L12,6 L0,12Z" fill="#f97316"/></marker></defs>
  <path d="M425 305 C503 305 500 265 570 265" fill="none" stroke="#f97316" stroke-width="6" stroke-dasharray="10 8" marker-end="url(#arrow)"/>
  <circle cx="487" cy="277" r="22" fill="#f97316"/><text x="487" y="285" text-anchor="middle" font-size="20" font-weight="bold" fill="#fff">→</text>
  <rect x="570" y="115" width="395" height="285" rx="10" fill="#ffffff" stroke="#94a3b8" stroke-width="2"/>
  <rect x="570" y="115" width="395" height="42" rx="10" fill="#dbeafe"/><text x="595" y="142" font-size="15" font-weight="bold" fill="#1e3a8a">デスクトップ</text><rect x="687" y="205" width="162" height="67" rx="8" fill="#eff6ff" stroke="#2563eb" stroke-width="3"/><text x="768" y="233" text-anchor="middle" font-size="15" font-weight="bold" fill="#1e40af">📦 2d-action-game</text><text x="768" y="255" text-anchor="middle" font-size="15" fill="#1e40af">.zip</text><text x="768" y="317" text-anchor="middle" font-size="15" font-weight="bold" fill="#166534">ここに見えたらコピー完了！</text>
  <rect x="35" y="431" width="930" height="54" rx="10" fill="#ecfdf5" stroke="#34d399" stroke-width="2"/><text x="62" y="464" font-size="16" font-weight="bold" fill="#065f46">コピー完了後：USBを安全に取り外す → 講師へ返却 → 次の「zipを展開」へ進む</text>
</svg>
