<svg viewBox="0 0 1000 500" width="1000" height="500" xmlns="http://www.w3.org/2000/svg" font-family="Hiragino Kaku Gothic ProN, Meiryo, sans-serif">
  <rect width="1000" height="500" rx="12" fill="#252526"/>
  <rect width="1000" height="40" rx="12" fill="#1e1e1e"/><text x="20" y="26" font-size="15" fill="#e5e7eb">2d-action-game - Unity 2022.3 LTS</text>
  <rect x="18" y="60" width="282" height="365" rx="6" fill="#1e1e1e"/><text x="36" y="91" font-size="17" font-weight="bold" fill="#f3f4f6">Project</text>
  <rect x="36" y="108" width="246" height="40" rx="5" fill="#3b3b3b" stroke="#f97316" stroke-width="3"/><text x="52" y="135" font-size="16" fill="#fff">🔍 SampleScene</text>
  <rect x="36" y="170" width="246" height="61" rx="6" fill="#334155" stroke="#60a5fa" stroke-width="3"/><rect x="53" y="187" width="28" height="28" rx="3" fill="#60a5fa"/><path d="M58 211h18v-18l-9-5-9 5z" fill="#eff6ff"/><text x="96" y="198" font-size="17" font-weight="bold" fill="#fff">SampleScene</text><text x="96" y="219" font-size="13" fill="#cbd5e1">Scene</text>
  <circle cx="286" cy="162" r="17" fill="#f97316"/><text x="286" y="168" text-anchor="middle" font-size="17" font-weight="bold" fill="#fff">2</text><circle cx="34" cy="106" r="17" fill="#f97316"/><text x="34" y="112" text-anchor="middle" font-size="17" font-weight="bold" fill="#fff">1</text>
  <rect x="323" y="60" width="659" height="365" rx="6" fill="#303030"/><text x="652" y="104" text-anchor="middle" font-size="21" font-weight="bold" fill="#f8fafc">SampleScene をダブルクリック</text><path d="M290 198 C370 198 370 235 459 235" fill="none" stroke="#f97316" stroke-width="5" stroke-dasharray="10 8" marker-end="url(#arrow)"/><defs><marker id="arrow" markerWidth="11" markerHeight="11" refX="9" refY="5.5" orient="auto"><path d="M0,0 L11,5.5 L0,11Z" fill="#f97316"/></marker></defs>
  <rect x="409" y="143" width="486" height="168" rx="10" fill="#0f766e" stroke="#5eead4" stroke-width="2"/><text x="652" y="180" text-anchor="middle" font-size="18" font-weight="bold" fill="#fff">シーンが開くと、ヒエラルキーに</text><rect x="455" y="204" width="150" height="65" rx="6" fill="#134e4a"/><text x="530" y="233" text-anchor="middle" font-size="18" font-weight="bold" fill="#fff">Player</text><rect x="685" y="204" width="150" height="65" rx="6" fill="#134e4a"/><text x="760" y="233" text-anchor="middle" font-size="18" font-weight="bold" fill="#fff">Level</text><text x="652" y="293" text-anchor="middle" font-size="15" fill="#ccfbf1">などが表示されるよ</text>
  <rect x="18" y="444" width="964" height="35" rx="7" fill="#172554"/><text x="500" y="467" text-anchor="middle" font-size="15" fill="#dbeafe">① 検索欄に SampleScene　→　② Sceneファイルをダブルクリック　→　③ ▶で再生</text>
</svg>
