<svg xmlns="http://www.w3.org/2000/svg" viewBox="0 0 240 200" width="240" height="200" role="img" aria-label="白いネコが座っているイラスト">
  <rect x="0" y="0" width="240" height="200" rx="16" fill="#e0f2fe"/>
  <path d="M170 140 C210 130, 215 95, 200 85 C192 80, 184 90, 190 100 C198 112, 190 128, 165 132 Z" fill="#ffffff" stroke="#94a3b8" stroke-width="3"/>
  <ellipse cx="115" cy="145" rx="62" ry="38" fill="#ffffff" stroke="#94a3b8" stroke-width="3"/>
  <polygon points="82,62 70,22 104,44" fill="#ffffff" stroke="#94a3b8" stroke-width="3"/>
  <polygon points="148,62 160,22 126,44" fill="#ffffff" stroke="#94a3b8" stroke-width="3"/>
  <polygon points="83,53 76,32 95,45" fill="#fbcfe8"/>
  <polygon points="147,53 154,32 135,45" fill="#fbcfe8"/>
  <circle cx="115" cy="85" r="45" fill="#ffffff" stroke="#94a3b8" stroke-width="3"/>
  <circle cx="98" cy="80" r="5" fill="#334155"/>
  <circle cx="132" cy="80" r="5" fill="#334155"/>
  <polygon points="111,95 119,95 115,101" fill="#f472b6"/>
  <path d="M115 101 C115 108, 108 110, 103 107" fill="none" stroke="#94a3b8" stroke-width="2.5"/>
  <path d="M115 101 C115 108, 122 110, 127 107" fill="none" stroke="#94a3b8" stroke-width="2.5"/>
  <line x1="62" y1="88" x2="88" y2="92" stroke="#94a3b8" stroke-width="2.5"/>
  <line x1="62" y1="100" x2="88" y2="98" stroke="#94a3b8" stroke-width="2.5"/>
  <line x1="168" y1="88" x2="142" y2="92" stroke="#94a3b8" stroke-width="2.5"/>
  <line x1="168" y1="100" x2="142" y2="98" stroke="#94a3b8" stroke-width="2.5"/>
  <line x1="90" y1="168" x2="90" y2="180" stroke="#94a3b8" stroke-width="3"/>
  <line x1="115" y1="170" x2="115" y2="182" stroke="#94a3b8" stroke-width="3"/>
  <line x1="140" y1="168" x2="140" y2="180" stroke="#94a3b8" stroke-width="3"/>
</svg>
