<svg xmlns="http://www.w3.org/2000/svg" viewBox="0 0 240 200" width="240" height="200" role="img" aria-label="海の上に建てたブロックの家のイラスト">
  <rect x="0" y="0" width="240" height="200" rx="16" fill="#e0f2fe"/>
  <circle cx="200" cy="40" r="16" fill="#fbbf24"/>
  <ellipse cx="60" cy="38" rx="26" ry="10" fill="#ffffff"/>
  <ellipse cx="150" cy="26" rx="20" ry="8" fill="#ffffff"/>
  <path d="M0 148 L240 148 L240 184 Q240 200 224 200 L16 200 Q0 200 0 184 Z" fill="#60a5fa"/>
  <path d="M24 166 q10 -8 20 0 q10 8 20 0" fill="none" stroke="#bfdbfe" stroke-width="3" stroke-linecap="round"/>
  <path d="M160 172 q10 -8 20 0 q10 8 20 0" fill="none" stroke="#bfdbfe" stroke-width="3" stroke-linecap="round"/>
  <rect x="86" y="140" width="9" height="34" fill="#92400e"/>
  <rect x="146" y="140" width="9" height="34" fill="#92400e"/>
  <rect x="72" y="86" width="96" height="58" fill="#fcd34d" stroke="#b45309" stroke-width="3"/>
  <rect x="64" y="70" width="112" height="18" fill="#4ade80" stroke="#16a34a" stroke-width="3"/>
  <rect x="76" y="73" width="10" height="10" fill="#22c55e"/>
  <rect x="118" y="75" width="10" height="10" fill="#22c55e"/>
  <rect x="154" y="73" width="10" height="10" fill="#22c55e"/>
  <rect x="108" y="106" width="24" height="38" fill="#92400e" stroke="#7c2d12" stroke-width="2.5"/>
  <rect x="82" y="102" width="16" height="16" fill="#bfdbfe" stroke="#7c2d12" stroke-width="2.5"/>
  <rect x="142" y="102" width="16" height="16" fill="#bfdbfe" stroke="#7c2d12" stroke-width="2.5"/>
</svg>
