<svg viewBox="0 0 1000 560" xmlns="http://www.w3.org/2000/svg" font-family="Hiragino Kaku Gothic ProN, Meiryo, sans-serif">
  <!-- ウィンドウ -->
  <rect x="0" y="0" width="1000" height="560" rx="8" fill="#ffffff" stroke="#c8c8c8" stroke-width="2"/>
  <rect x="0" y="0" width="1000" height="38" rx="8" fill="#f3f3f3"/>
  <text x="20" y="25" font-size="13" fill="#333333">yumeaka-web - エクスプローラー</text>
  <g font-size="14" fill="#555555">
    <text x="906" y="25">—</text>
    <text x="936" y="25">□</text>
    <text x="966" y="25">✕</text>
  </g>
  <!-- アドレスバー -->
  <rect x="0" y="38" width="1000" height="42" fill="#fafafa"/>
  <rect x="16" y="46" width="640" height="26" rx="4" fill="#ffffff" stroke="#d4d4d4"/>
  <text x="30" y="64" font-size="13" fill="#333333">PC　&gt;　デスクトップ　&gt;　yumeaka-web</text>
  <rect x="672" y="46" width="310" height="26" rx="4" fill="#ffffff" stroke="#d4d4d4"/>
  <text x="686" y="64" font-size="13" fill="#999999">🔍 検索</text>
  <!-- サイドバー -->
  <rect x="0" y="80" width="200" height="480" fill="#fafafa"/>
  <line x1="200" y1="80" x2="200" y2="560" stroke="#e5e5e5" stroke-width="1"/>
  <g font-size="13" fill="#333333">
    <text x="20" y="112">★ クイック アクセス</text>
    <text x="36" y="142">デスクトップ</text>
    <text x="36" y="172">ダウンロード</text>
    <text x="36" y="202">ドキュメント</text>
    <text x="36" y="232">ピクチャ</text>
  </g>
  <!-- メイン領域: img フォルダ -->
  <g>
    <path d="M600 150 h34 l10 10 h46 v58 h-90 z" fill="#ffd674" stroke="#e3b230" stroke-width="2"/>
    <text x="645" y="242" font-size="14" text-anchor="middle" fill="#333333">img</text>
  </g>
  <!-- メイン領域: index.html -->
  <g>
    <path d="M790 150 h56 l20 20 v48 h-76 z" fill="#ffffff" stroke="#94a3b8" stroke-width="2"/>
    <path d="M846 150 v20 h20" fill="none" stroke="#94a3b8" stroke-width="2"/>
    <text x="828" y="200" font-size="12" text-anchor="middle" fill="#0369a1">&lt;/&gt;</text>
    <text x="828" y="242" font-size="14" text-anchor="middle" fill="#333333">index.html</text>
  </g>
  <!-- 写真ファイル -->
  <g>
    <rect x="270" y="330" width="100" height="74" rx="4" fill="#e0f2fe" stroke="#64748b" stroke-width="2"/>
    <circle cx="345" cy="352" r="9" fill="#f59e0b"/>
    <polygon points="278,398 308,362 330,386 344,372 364,398" fill="#16a34a"/>
    <text x="320" y="428" font-size="14" text-anchor="middle" fill="#333333">neko.jpg</text>
  </g>
  <!-- 注釈1: 名前の変更 -->
  <rect x="258" y="320" width="124" height="120" rx="8" fill="none" stroke="#ff3b30" stroke-width="3"/>
  <circle cx="258" cy="320" r="13" fill="#ff3b30"/>
  <text x="258" y="325" font-size="14" fill="#ffffff" text-anchor="middle" font-weight="bold">1</text>
  <text x="240" y="470" font-size="13" fill="#c0392b">右クリック → 「名前の変更」で</text>
  <text x="240" y="490" font-size="13" fill="#c0392b">半角英数字の名前にする（例: neko.jpg）</text>
  <!-- 注釈2: ドラッグの矢印 -->
  <path d="M395 350 C480 300, 520 260, 585 215" fill="none" stroke="#ff3b30" stroke-width="3" stroke-dasharray="8 6"/>
  <polygon points="585,215 570,218 578,231" fill="#ff3b30"/>
  <circle cx="480" cy="292" r="13" fill="#ff3b30"/>
  <text x="480" y="297" font-size="14" fill="#ffffff" text-anchor="middle" font-weight="bold">2</text>
  <text x="502" y="297" font-size="13" fill="#c0392b">img フォルダへドラッグ＆ドロップ</text>
  <!-- 説明ボックス -->
  <rect x="560" y="380" width="420" height="130" rx="10" fill="#fff1f0" stroke="#ff3b30" stroke-width="2"/>
  <text x="580" y="412" font-size="14" fill="#c0392b" font-weight="bold">ポイント</text>
  <text x="580" y="440" font-size="13" fill="#c0392b">・スマホの写真はメールなどで先にPCへ送っておく</text>
  <text x="580" y="465" font-size="13" fill="#c0392b">・日本語や空白入りの名前はトラブルのもと</text>
  <text x="580" y="490" font-size="13" fill="#c0392b">・入れたら VSCode の img フォルダにも表示される</text>
</svg>
