<svg xmlns="http://www.w3.org/2000/svg" viewBox="0 0 180 180" role="img" aria-labelledby="title desc">
  <title id="title">案内役のアオイ</title>
  <desc id="desc">紺色の髪で、疑問を言葉にする中学生の案内役</desc>
  <circle cx="90" cy="90" r="84" fill="#e8f5f3"/>
  <path d="M28 145c11-27 33-40 62-40s51 13 62 40v27H28z" fill="#e45b50" stroke="#17233f" stroke-width="5" stroke-linejoin="round"/>
  <path d="M72 109h36v25c-7 8-29 8-36 0z" fill="#f2bd94" stroke="#17233f" stroke-width="5"/>
  <path d="M51 69c0-31 17-49 41-49 27 0 43 19 43 50v25c0 28-19 46-44 46S48 123 48 95z" fill="#f4c7a2" stroke="#17233f" stroke-width="5"/>
  <path d="M48 80c-6-27 11-62 44-62 29 0 48 25 43 58-15-4-25-14-32-28-12 15-27 24-55 32z" fill="#214d73" stroke="#17233f" stroke-width="5" stroke-linejoin="round"/>
  <path d="M51 76c-12-1-15 10-9 20 3 5 7 7 12 7M132 76c12-1 15 10 9 20-3 5-7 7-12 7" fill="#f4c7a2" stroke="#17233f" stroke-width="5" stroke-linecap="round"/>
  <circle cx="75" cy="88" r="4" fill="#17233f"/>
  <circle cx="108" cy="88" r="4" fill="#17233f"/>
  <path d="M80 110c7 6 16 6 23 0" fill="none" stroke="#17233f" stroke-width="4" stroke-linecap="round"/>
  <path d="M91 105v-7" fill="none" stroke="#d1896c" stroke-width="3" stroke-linecap="round"/>
  <path d="M51 150c25 12 53 12 79 0" fill="none" stroke="#fff9ec" stroke-width="8" stroke-linecap="round"/>
  <circle cx="143" cy="38" r="15" fill="#f5be3e" stroke="#17233f" stroke-width="4"/>
  <path d="M143 30v10l-6 4" fill="none" stroke="#17233f" stroke-width="3" stroke-linecap="round" stroke-linejoin="round"/>
</svg>
