<svg xmlns="http://www.w3.org/2000/svg" viewBox="0 0 240 200" width="240" height="200" role="img" aria-label="むらさき色のゲームコントローラーのイラスト">
  <rect x="0" y="0" width="240" height="200" rx="16" fill="#ede9fe"/>
  <polygon points="38,34 43,45 38,56 33,45" fill="#c4b5fd"/>
  <polygon points="204,42 208,51 204,60 200,51" fill="#c4b5fd"/>
  <rect x="28" y="72" width="184" height="76" rx="38" fill="#a78bfa" stroke="#6d28d9" stroke-width="3"/>
  <rect x="56" y="104" width="36" height="12" rx="4" fill="#f5f3ff"/>
  <rect x="68" y="92" width="12" height="36" rx="4" fill="#f5f3ff"/>
  <circle cx="168" cy="92" r="8" fill="#fbbf24"/>
  <circle cx="188" cy="110" r="8" fill="#34d399"/>
  <circle cx="168" cy="128" r="8" fill="#60a5fa"/>
  <circle cx="148" cy="110" r="8" fill="#f472b6"/>
  <rect x="106" y="106" width="11" height="8" rx="3" fill="#ede9fe"/>
  <rect x="123" y="106" width="11" height="8" rx="3" fill="#ede9fe"/>
  <path d="M96 168 C104 176, 136 176, 144 168" fill="none" stroke="#c4b5fd" stroke-width="4" stroke-linecap="round"/>
</svg>
